<?xml version="1.0" standalone="no"?>
<!DOCTYPE svg PUBLIC "-//W3C//DTD SVG 20010904//EN"
 "http://www.w3.org/TR/2001/REC-SVG-20010904/DTD/svg10.dtd">
<svg version="1.0" xmlns="http://www.w3.org/2000/svg"
 width="500.000000pt" height="500.000000pt" viewBox="0 0 500.000000 500.000000"
 preserveAspectRatio="xMidYMid meet">

<g transform="translate(0.000000,500.000000) scale(0.100000,-0.100000)"
fill="#000000" stroke="none">
<path d="M2345 4664 c-543 -55 -951 -240 -1322 -597 -643 -620 -823 -1605
-440 -2411 285 -598 797 -1014 1438 -1166 207 -49 516 -66 724 -40 729 90
1336 521 1656 1175 622 1272 -164 2791 -1560 3015 -118 20 -406 33 -496 24z
m40 -81 c-33 -88 -830 -1933 -834 -1933 -3 0 -32 58 -63 128 -32 70 -101 222
-154 337 -53 116 -156 342 -230 503 l-134 294 35 42 c38 47 190 183 276 247
105 79 283 179 422 238 165 70 350 121 533 145 143 20 158 20 149 -1z m335 7
c447 -54 829 -228 1168 -530 56 -50 102 -97 102 -103 0 -16 -563 -1336 -571
-1337 -3 0 -14 21 -26 48 -11 26 -201 443 -423 927 -221 484 -415 908 -431
943 l-28 62 62 0 c34 0 101 -5 147 -10z m-187 -180 c41 -91 137 -300 212 -465
76 -165 159 -347 185 -405 26 -58 109 -240 185 -405 220 -480 245 -536 245
-546 0 -5 -350 -9 -880 -9 -624 0 -880 3 -880 11 0 10 819 1929 842 1972 5 10
11 17 13 15 2 -1 37 -77 78 -168z m1566 -575 c437 -556 564 -1271 342 -1933
-46 -139 -111 -282 -183 -401 -51 -85 -178 -264 -195 -274 -5 -3 -41 65 -80
151 -39 86 -173 379 -297 651 -124 272 -226 501 -226 510 0 20 573 1360 582
1361 3 0 29 -29 57 -65z m-3044 -250 c65 -143 135 -296 155 -340 20 -44 98
-215 174 -380 l136 -300 -281 -655 c-154 -360 -284 -664 -288 -674 -7 -17 -14
-12 -55 40 -298 375 -465 884 -443 1354 15 316 82 572 219 843 91 180 241 400
258 380 4 -4 60 -125 125 -268z m2317 -1083 c-53 -133 -847 -1972 -852 -1972
-3 0 -38 71 -77 158 -39 86 -146 321 -238 522 -92 201 -236 516 -320 700 -84
184 -180 395 -214 468 -34 73 -61 135 -61 137 0 3 398 5 885 5 847 0 884 -1
877 -18z m-1472 -767 c188 -412 377 -826 420 -920 43 -93 92 -201 109 -239
l31 -69 -122 6 c-458 24 -953 251 -1287 591 l-65 65 283 661 c156 363 285 660
286 658 1 -2 157 -340 345 -753z m2030 -383 l84 -183 -65 -65 c-327 -333 -818
-561 -1266 -590 l-102 -7 404 944 c223 519 412 959 421 978 l15 34 213 -464
c117 -255 250 -546 296 -647z"/>
</g>
</svg>
